<svg width="16" height="18" viewBox="0 0 16 18" fill="none" xmlns="http://www.w3.org/2000/svg">
  <path d="M15.4406 17.2481L14.3453 5.05022C14.3154 4.7171 14.0363 4.46195 13.7018 4.46195H11.4431V3.44322C11.4431 1.54463 9.89855 0 8.00005 0C6.10163 0 4.55726 1.54463 4.55726 3.44322V4.46195H2.29696C1.96255 4.46195 1.68336 4.7171 1.65347 5.05022L0.553853 17.2961C0.537658 17.4769 0.59813 17.6559 0.720539 17.7898C0.842948 17.9237 1.01601 17.9999 1.19734 17.9999H14.8015C14.8021 17.9999 14.8028 17.9999 14.8033 17.9999C15.1602 17.9999 15.4493 17.7106 15.4493 17.3538C15.4493 17.3179 15.4463 17.2825 15.4406 17.2481ZM5.8494 3.44322C5.8494 2.25712 6.8142 1.29214 8.00013 1.29214C9.18615 1.29214 10.151 2.25712 10.151 3.44322V4.46195H5.8494V3.44322ZM1.90406 16.7079L2.88764 5.75409H4.55726V6.90944C4.55726 7.26624 4.84644 7.55551 5.20333 7.55551C5.56022 7.55551 5.8494 7.26624 5.8494 6.90944V5.75409H10.151V6.90944C10.151 7.26624 10.4402 7.55551 10.7971 7.55551C11.154 7.55551 11.4432 7.26624 11.4432 6.90944V5.75409H13.1113L14.0948 16.7079H1.90406Z" fill="#079294" />
</svg>