<svg width="19" height="23" viewBox="0 0 19 23" fill="none" xmlns="http://www.w3.org/2000/svg">
  <path d="M0.588482 21.1587L0.588486 21.1587L1.87137 6.87181L1.87137 6.8718L2.09547 6.89192C2.13034 6.50328 2.45606 6.2056 2.8462 6.2056L0.588482 21.1587ZM0.588482 21.1587C0.563952 21.4325 0.655558 21.7038 0.841006 21.9066C1.02645 22.1094 1.28861 22.2249 1.56332 22.2249H17.4349H17.4349H17.4349H17.4349H17.435H17.435H17.435H17.435H17.435H17.435H17.4351H17.4351H17.4351H17.4351H17.4351H17.4351H17.4352H17.4352H17.4352H17.4352H17.4352H17.4352H17.4352H17.4353H17.4353H17.4353H17.4353H17.4353H17.4353H17.4354H17.4354H17.4354H17.4354H17.4354H17.4354H17.4354H17.4355H17.4355H17.4355H17.4355H17.4355H17.4355H17.4356H17.4356H17.4356H17.4356H17.4356H17.4356H17.4357H17.4357H17.4357H17.4357H17.4357H17.4357H17.4358H17.4358H17.4358H17.4358H17.4358H17.4358H17.4359H17.4359H17.4359H17.4359H17.4359H17.4359H17.436H17.436H17.436H17.436H17.436H17.436H17.4361H17.4361H17.4361H17.4361H17.4361H17.4361H17.4362H17.4362H17.4362H17.4362H17.4362H17.4362H17.4362H17.4363H17.4363H17.4363H17.4363H17.4363H17.4363H17.4364H17.4364H17.4364H17.4364H17.4364H17.4364H17.4365H17.4365H17.4365H17.4365H17.4365H17.4365H17.4366H17.4366H17.4366H17.4366H17.4366H17.4366H17.4366H17.4367H17.4367H17.4367H17.4367H17.4367H17.4367H17.4368H17.4368H17.4368H17.4368H17.4368H17.4368H17.4368H17.4369H17.4369H17.4369C17.9776 22.2249 18.4157 21.7867 18.4157 21.2461L18.4157 21.2456C18.4155 21.1949 18.4116 21.1444 18.4039 21.0949L17.1267 6.8718C17.0815 6.36713 16.6585 5.9806 16.1519 5.9806H13.7417V5.01709C13.7417 2.67781 11.839 0.775 9.49981 0.775C7.1607 0.775 5.25822 2.67783 5.25822 5.01709V5.9806L0.588482 21.1587ZM7.21573 5.01709C7.21573 3.75753 8.24063 2.7325 9.49991 2.7325C10.7593 2.7325 11.7843 3.75755 11.7843 5.01709V5.9806H7.21573V5.01709ZM15.2572 7.9381L16.3643 20.2675H2.63393L3.74103 7.9381H5.25822V9.06101C5.25822 9.60153 5.69632 10.0398 6.23698 10.0398C6.77763 10.0398 7.21573 9.60153 7.21573 9.06101V7.9381H11.7843V9.06101C11.7843 9.60153 12.2224 10.0398 12.763 10.0398C13.3037 10.0398 13.7418 9.60153 13.7418 9.06101V7.9381H15.2572Z" fill="black" stroke="white" stroke-width="0.45" />
</svg>