<svg width="80" height="32" viewBox="0 0 80 32" fill="none" xmlns="http://www.w3.org/2000/svg">
  <path d="M51.3067 7.4834H44.5007C41.7347 7.4834 39.4844 9.73372 39.4844 12.4997V19.3057C39.4844 22.0717 41.7347 24.3221 44.5007 24.3221H51.3067C54.0727 24.3221 56.323 22.0717 56.323 19.3057V12.4997C56.323 9.73372 54.0727 7.4834 51.3067 7.4834ZM54.6291 19.3057C54.6291 21.1406 53.1416 22.6281 51.3067 22.6281H44.5007C42.6658 22.6281 41.1783 21.1406 41.1783 19.3057V12.4997C41.1783 10.6649 42.6658 9.17737 44.5007 9.17737H51.3067C53.1416 9.17737 54.6291 10.6649 54.6291 12.4997V19.3057Z" fill="black" />
  <path d="M52.2663 12.6242C52.8426 12.6242 53.3098 12.157 53.3098 11.5807C53.3098 11.0043 52.8426 10.5371 52.2663 10.5371C51.6899 10.5371 51.2227 11.0043 51.2227 11.5807C51.2227 12.157 51.6899 12.6242 52.2663 12.6242Z" fill="black" />
  <path d="M47.9059 11.5479C45.5044 11.5479 43.5508 13.5015 43.5508 15.9029C43.5508 18.3043 45.5044 20.258 47.9059 20.258C50.3073 20.258 52.2609 18.3043 52.2609 15.9029C52.2609 13.5015 50.3073 11.5479 47.9059 11.5479ZM47.9059 18.564C46.4362 18.564 45.2448 17.3726 45.2448 15.9029C45.2448 14.4332 46.4362 13.2418 47.9059 13.2418C49.3755 13.2418 50.567 14.4332 50.567 15.9029C50.567 17.3726 49.3755 18.564 47.9059 18.564Z" fill="black" />
  <path d="M25.3741 12.9128V12.9128C25.3741 11.0197 23.8403 9.48438 21.9469 9.48438H10.5595C8.66619 9.48438 7.13281 11.0202 7.13281 12.9128V19.4247C7.13281 21.3177 8.66652 22.8532 10.5595 22.8532H21.9467C23.8405 22.8532 25.3739 21.3174 25.3739 19.4248C25.3739 19.4248 25.3739 19.4248 25.3739 19.4247L25.3741 12.9128ZM17.4504 15.8579L15.6288 17.0588V14.6568L17.4504 15.8579Z" stroke="black" stroke-width="2" />
</svg>